<?xml version="1.0" encoding="UTF-8" standalone="no"?>
<svg width="180px" height="180px" viewBox="0 0 180 180" version="1.1" xmlns="http://www.w3.org/2000/svg" xmlns:xlink="http://www.w3.org/1999/xlink" xmlns:sketch="http://www.bohemiancoding.com/sketch/ns">
    <!-- Generator: Sketch 3.4.4 (17249) - http://www.bohemiancoding.com/sketch -->
    <title>Untitled</title>
    <desc>Created with Sketch.</desc>
    <defs></defs>
    <g id="Page-1" stroke="none" stroke-width="1" fill="none" fill-rule="evenodd" sketch:type="MSPage">
        <g id="NewsON_PrimaryLogo_WEB" sketch:type="MSLayerGroup">
            <g id="Group-4" sketch:type="MSShapeGroup">
                <path d="M89.6093274,13.3329148 C47.1204484,13.3329148 12.5523767,47.9009865 12.5523767,90.3906726 C12.5523767,132.880359 47.1204484,167.447623 89.6093274,167.447623 C132.099013,167.447623 166.666278,132.880359 166.666278,90.3906726 C166.666278,47.9009865 132.099013,13.3329148 89.6093274,13.3329148" id="Fill-1" fill="#FFFFFF"></path>
                <path d="M89.6093274,167.447623 C47.1204484,167.447623 12.5523767,132.880359 12.5523767,90.3906726 C12.5523767,47.9009865 47.1204484,13.3329148 89.6093274,13.3329148 C132.099013,13.3329148 166.666278,47.9009865 166.666278,90.3906726 C166.666278,132.880359 132.099013,167.447623 89.6093274,167.447623 L89.6093274,167.447623 Z M89.6093274,0.780538117 C40.1989238,0.780538117 0,40.9802691 0,90.3906726 C0,139.801883 40.1989238,180 89.6093274,180 C139.020538,180 179.218655,139.801883 179.218655,90.3906726 C179.218655,40.9802691 139.020538,0.780538117 89.6093274,0.780538117 L89.6093274,0.780538117 Z" id="Fill-3" fill="#004A87"></path>
            </g>
            <path d="M90.752287,90.4068161 C90.752287,109.096951 75.6008072,124.24843 56.9114798,124.24843 C38.2213453,124.24843 23.0698655,109.096951 23.0698655,90.4068161 C23.0698655,71.7166816 38.2213453,56.5652018 56.9114798,56.5652018 C75.6008072,56.5652018 90.752287,71.7166816 90.752287,90.4068161" id="Fill-5" fill="#004A87" sketch:type="MSShapeGroup"></path>
            <path d="M137.086547,123.84 L137.086547,88.5616143 C137.086547,77.0593722 130.741345,71.9095964 124.453453,71.9095964 C117.916143,71.9095964 110.604753,77.8843049 110.604753,85.8801794 L110.604753,123.84 L95.0286996,123.84 L95.0286996,58.1617937 L101.285919,58.1617937 L105.944126,66.5878924 C110.80574,60.6930942 118.920269,56.8210762 126.648161,56.8210762 C141.965112,56.8210762 152.662601,69.7229596 152.662601,88.1975785 L152.662601,123.84 L137.086547,123.84" id="Fill-6" fill="#004A87" sketch:type="MSShapeGroup"></path>
            <path d="M37.966278,97.8255605 L31.6299552,87.4824215 L31.6299552,97.8255605 L28.6280717,97.8255605 L28.6280717,81.3761435 L31.1940807,81.3761435 L37.555426,91.7200897 L37.555426,81.3761435 L40.5573094,81.3761435 L40.5573094,97.8255605 L37.966278,97.8255605" id="Fill-7" fill="#FFFFFF" sketch:type="MSShapeGroup"></path>
            <path d="M68.5840359,98.0959641 L65.8162332,91.2236771 L63.0234081,98.0959641 L62.0588341,98.0959641 L56.7242152,84.9333632 L59.7115695,84.9333632 L62.5528251,91.9759641 L64.3229596,87.5276233 L63.2752466,84.9333632 L66.2626009,84.9333632 L69.0796413,91.9767713 L71.9208969,84.9333632 L74.9082511,84.9333632 L69.5744395,98.0959641 L68.5840359,98.0959641" id="Fill-8" fill="#FFFFFF" sketch:type="MSShapeGroup"></path>
            <path d="M80.5504036,98.1452018 C79.1467265,98.1452018 77.9529148,97.7165919 76.4297758,96.664843 L76.4071749,96.6503139 L76.712287,94.2578475 L76.7671749,94.2852915 C78.3605381,95.1061883 79.4978475,95.5816143 80.5996413,95.5816143 C81.4681614,95.5816143 82.6910314,95.1683408 82.6910314,94.2497758 C82.6910314,93.3747982 81.5916592,92.9857399 80.3179372,92.5369507 C78.512287,91.8984753 76.2634978,91.1050224 76.2634978,88.5333632 C76.2634978,86.2853812 78.3064574,84.5895067 81.0161435,84.5895067 C82.5223318,84.5895067 83.6806278,85.0374888 85.2869058,86.2426009 L85.3127354,86.2619731 L84.4732735,88.3485202 L84.4313004,88.3267265 C83.2633184,87.6947085 82.1284305,87.1288789 81.0904036,87.1288789 C79.8134529,87.1288789 79.1451121,87.7487892 79.1451121,88.361435 C79.1451121,89.1758744 80.2420628,89.5794619 81.5125561,90.046009 C83.3222422,90.7119283 85.5734529,91.5400897 85.5734529,93.9559641 C85.5734529,96.706009 83.0469955,98.1452018 80.5504036,98.1452018" id="Fill-9" fill="#FFFFFF" sketch:type="MSShapeGroup"></path>
            <path d="M46.504574,89.4535426 L46.6070852,89.2113901 C47.3924664,87.3556951 48.9575785,87.1555157 49.5944395,87.1555157 C51.1530942,87.1555157 52.2339013,87.9836771 52.3493274,89.2646637 L52.366278,89.4535426 L46.504574,89.4535426 L46.504574,89.4535426 Z M53.9765919,86.6744395 C52.8965919,85.3966816 51.2886996,84.6637668 49.5621525,84.6637668 C45.9427803,84.6637668 43.213722,87.5720179 43.213722,91.4286996 C43.213722,95.353991 45.9452018,98.0959641 49.8567713,98.0959641 C51.743139,98.0959641 53.7013453,97.1846637 54.8451121,95.773722 L54.867713,95.746278 L53.3946188,93.9688789 L53.3615247,93.99713 C52.5729148,94.6775785 51.4888789,95.4589238 50.1013453,95.4589238 C48.6072646,95.4589238 47.7016143,94.8220628 47.2043946,94.2885202 C46.5982063,93.6387444 46.2535426,92.7669955 46.26,91.8976682 L46.2608072,91.7410762 L55.2406278,91.7410762 L55.246278,91.7055605 C55.5683408,89.8119283 55.11713,88.024843 53.9765919,86.6744395 L53.9765919,86.6744395 Z" id="Fill-10" fill="#FFFFFF" sketch:type="MSShapeGroup"></path>
        </g>
    </g>
</svg>