<?xml version="1.0" encoding="UTF-8" standalone="no"?>
<svg width="120px" height="121px" viewBox="0 0 120 121" version="1.1" xmlns="http://www.w3.org/2000/svg" xmlns:xlink="http://www.w3.org/1999/xlink" xmlns:sketch="http://www.bohemiancoding.com/sketch/ns">
    <!-- Generator: Sketch 3.4.4 (17249) - http://www.bohemiancoding.com/sketch -->
    <title>Untitled</title>
    <desc>Created with Sketch.</desc>
    <defs></defs>
    <g id="Page-1" stroke="none" stroke-width="1" fill="none" fill-rule="evenodd" sketch:type="MSPage">
        <g id="NewsON_PrimaryLogo_WEB" sketch:type="MSLayerGroup">
            <g id="Group-4" sketch:type="MSShapeGroup">
                <path d="M59.7395516,8.88860987 C31.4136323,8.88860987 8.36825112,31.933991 8.36825112,60.2604484 C8.36825112,88.5869058 31.4136323,111.631749 59.7395516,111.631749 C88.066009,111.631749 111.110852,88.5869058 111.110852,60.2604484 C111.110852,31.933991 88.066009,8.88860987 59.7395516,8.88860987" id="Fill-1" fill="#FFFFFF"></path>
                <path d="M59.7395516,111.631749 C31.4136323,111.631749 8.36825112,88.5869058 8.36825112,60.2604484 C8.36825112,31.933991 31.4136323,8.88860987 59.7395516,8.88860987 C88.066009,8.88860987 111.110852,31.933991 111.110852,60.2604484 C111.110852,88.5869058 88.066009,111.631749 59.7395516,111.631749 L59.7395516,111.631749 Z M59.7395516,0.520358744 C26.7992825,0.520358744 0,27.3201794 0,60.2604484 C0,93.2012556 26.7992825,120 59.7395516,120 C92.6803587,120 119.479103,93.2012556 119.479103,60.2604484 C119.479103,27.3201794 92.6803587,0.520358744 59.7395516,0.520358744 L59.7395516,0.520358744 Z" id="Fill-3" fill="#004A87"></path>
            </g>
            <path d="M60.5015247,60.2712108 C60.5015247,72.7313004 50.4005381,82.832287 37.9409865,82.832287 C25.4808969,82.832287 15.3799103,72.7313004 15.3799103,60.2712108 C15.3799103,47.8111211 25.4808969,37.7101345 37.9409865,37.7101345 C50.4005381,37.7101345 60.5015247,47.8111211 60.5015247,60.2712108" id="Fill-5" fill="#004A87" sketch:type="MSShapeGroup"></path>
            <path d="M91.3910314,82.56 L91.3910314,59.0410762 C91.3910314,51.3729148 87.1608969,47.9397309 82.9689686,47.9397309 C78.6107623,47.9397309 73.7365022,51.92287 73.7365022,57.2534529 L73.7365022,82.56 L63.3524664,82.56 L63.3524664,38.7745291 L67.5239462,38.7745291 L70.629417,44.3919283 C73.8704933,40.4620628 79.2801794,37.8807175 84.4321076,37.8807175 C94.6434081,37.8807175 101.775067,46.4819731 101.775067,58.7983857 L101.775067,82.56 L91.3910314,82.56" id="Fill-6" fill="#004A87" sketch:type="MSShapeGroup"></path>
            <path d="M25.310852,65.2170404 L21.0866368,58.3216143 L21.0866368,65.2170404 L19.0853812,65.2170404 L19.0853812,54.2507623 L20.7960538,54.2507623 L25.0369507,61.1467265 L25.0369507,54.2507623 L27.0382063,54.2507623 L27.0382063,65.2170404 L25.310852,65.2170404" id="Fill-7" fill="#FFFFFF" sketch:type="MSShapeGroup"></path>
            <path d="M45.7226906,65.3973094 L43.8774888,60.8157848 L42.0156054,65.3973094 L41.3725561,65.3973094 L37.8161435,56.6222422 L39.807713,56.6222422 L41.7018834,61.3173094 L42.8819731,58.3517489 L42.1834978,56.6222422 L44.1750673,56.6222422 L46.0530942,61.3178475 L47.9472646,56.6222422 L49.9388341,56.6222422 L46.3829596,65.3973094 L45.7226906,65.3973094" id="Fill-8" fill="#FFFFFF" sketch:type="MSShapeGroup"></path>
            <path d="M53.7002691,65.4301345 C52.7644843,65.4301345 51.9686099,65.1443946 50.9531839,64.4432287 L50.9381166,64.4335426 L51.1415247,62.838565 L51.1781166,62.856861 C52.2403587,63.4041256 52.998565,63.7210762 53.7330942,63.7210762 C54.3121076,63.7210762 55.1273543,63.4455605 55.1273543,62.8331839 C55.1273543,62.2498655 54.3944395,61.9904933 53.5452915,61.6913004 C52.3415247,61.2656502 50.8423318,60.7366816 50.8423318,59.0222422 C50.8423318,57.5235874 52.2043049,56.3930045 54.0107623,56.3930045 C55.0148879,56.3930045 55.7870852,56.6916592 56.8579372,57.4950673 L56.875157,57.5079821 L56.3155157,58.8990135 L56.2875336,58.8844843 C55.5088789,58.463139 54.752287,58.0859193 54.0602691,58.0859193 C53.2089686,58.0859193 52.7634081,58.4991928 52.7634081,58.9076233 C52.7634081,59.450583 53.4947085,59.7196413 54.341704,60.0306726 C55.5481614,60.4746188 57.0489686,61.0267265 57.0489686,62.6373094 C57.0489686,64.4706726 55.3646637,65.4301345 53.7002691,65.4301345" id="Fill-9" fill="#FFFFFF" sketch:type="MSShapeGroup"></path>
            <path d="M31.0030493,59.6356951 L31.0713901,59.4742601 C31.5949776,58.23713 32.6383857,58.1036771 33.0629596,58.1036771 C34.1020628,58.1036771 34.8226009,58.6557848 34.8995516,59.5097758 L34.910852,59.6356951 L31.0030493,59.6356951 L31.0030493,59.6356951 Z M35.9843946,57.7829596 C35.2643946,56.9311211 34.1924664,56.4425112 33.041435,56.4425112 C30.6285202,56.4425112 28.809148,58.3813453 28.809148,60.9524664 C28.809148,63.5693274 30.6301345,65.3973094 33.2378475,65.3973094 C34.495426,65.3973094 35.8008969,64.7897758 36.5634081,63.849148 L36.5784753,63.830852 L35.5964126,62.6459193 L35.5743498,62.6647534 C35.0486099,63.1183857 34.3259193,63.6392825 33.4008969,63.6392825 C32.404843,63.6392825 31.8010762,63.2147085 31.4695964,62.8590135 C31.0654709,62.4258296 30.8356951,61.8446637 30.84,61.2651121 L30.8405381,61.1607175 L36.8270852,61.1607175 L36.830852,61.1370404 C37.0455605,59.8746188 36.7447534,58.6832287 35.9843946,57.7829596 L35.9843946,57.7829596 Z" id="Fill-10" fill="#FFFFFF" sketch:type="MSShapeGroup"></path>
        </g>
    </g>
</svg>